<svg preserveAspectRatio="none" overflow="visible" style="display: block;" width="16.6667" height="17.3454" viewBox="0 0 16.6667 17.3454" fill="none" xmlns="http://www.w3.org/2000/svg">
<g id="Group">
<g id="Vector">
</g>
<path id="Vector_2" d="M10 0C10.663 0 11.2989 0.263392 11.7678 0.732233C12.2366 1.20107 12.5 1.83696 12.5 2.5H15C15.442 2.5 15.8659 2.67559 16.1785 2.98816C16.4911 3.30072 16.6667 3.72464 16.6667 4.16667V13.3333C16.6667 13.7754 16.4911 14.1993 16.1785 14.5118C15.8659 14.8244 15.442 15 15 15H1.66667C1.22464 15 0.800716 14.8244 0.488155 14.5118C0.175595 14.1993 0 13.7754 0 13.3333V4.16667C0 3.72464 0.175595 3.30072 0.488155 2.98816C0.800716 2.67559 1.22464 2.5 1.66667 2.5H4.16667C4.16667 1.83696 4.43006 1.20107 4.8989 0.732233C5.36774 0.263392 6.00363 0 6.66667 0H10ZM14.1667 5.83333H2.5C2.2876 5.83357 2.08331 5.9149 1.92886 6.06071C1.77441 6.20651 1.68147 6.40579 1.66902 6.61783C1.65658 6.82986 1.72556 7.03865 1.86189 7.20153C1.99821 7.3644 2.19159 7.46908 2.4025 7.49417L2.5 7.5H7.5V8.33333C7.50024 8.54573 7.58157 8.75003 7.72737 8.90447C7.87318 9.05892 8.07246 9.15186 8.2845 9.16431C8.49653 9.17676 8.70532 9.10777 8.86819 8.97145C9.03107 8.83512 9.13575 8.64175 9.16083 8.43083L9.16667 8.33333V7.5H14.1667C14.3791 7.49976 14.5834 7.41843 14.7378 7.27263C14.8923 7.12682 14.9852 6.92754 14.9976 6.7155C15.0101 6.50347 14.9411 6.29468 14.8048 6.13181C14.6685 5.96893 14.4751 5.86425 14.2642 5.83917L14.1667 5.83333ZM10 1.66667H6.66667C6.46256 1.66669 6.26555 1.74163 6.11302 1.87726C5.96049 2.0129 5.86305 2.19979 5.83917 2.4025L5.83333 2.5H10.8333C10.8333 2.29589 10.7584 2.09889 10.6227 1.94636C10.4871 1.79383 10.3002 1.69638 10.0975 1.6725L10 1.66667Z" fill="#2E78F9"/>
</g>
</svg>
