<svg preserveAspectRatio="none" overflow="visible" style="display: block;" width="12" height="12" viewBox="0 0 12 12" fill="none" xmlns="http://www.w3.org/2000/svg">
<g id="material-symbols:check-rounded">
<path id="Vector" d="M4.775 7.575L9.0125 3.3375C9.1125 3.2375 9.22917 3.1875 9.3625 3.1875C9.49583 3.1875 9.6125 3.2375 9.7125 3.3375C9.8125 3.4375 9.8625 3.55633 9.8625 3.694C9.8625 3.83167 9.8125 3.95033 9.7125 4.05L5.125 8.65C5.025 8.75 4.90833 8.8 4.775 8.8C4.64167 8.8 4.525 8.75 4.425 8.65L2.275 6.5C2.175 6.4 2.127 6.28133 2.131 6.144C2.135 6.00667 2.18717 5.88783 2.2875 5.7875C2.38783 5.68717 2.50667 5.63717 2.644 5.6375C2.78133 5.63783 2.9 5.68783 3 5.7875L4.775 7.575Z" fill="white"/>
</g>
</svg>
